<svg width="42" height="43" viewBox="0 0 42 43" fill="none" xmlns="http://www.w3.org/2000/svg">
<g id="bi:cake" clip-path="url(#clip0_2196_737)">
<path id="Vector" d="M20.9843 0.584961L19.4224 2.65871C19.1245 3.05277 18.9863 3.54475 19.0355 4.03628C19.0846 4.52782 19.3175 4.98269 19.6875 5.30996V11.0508H13.125C11.7326 11.0508 10.3973 11.604 9.41269 12.5885C8.42812 13.5731 7.875 14.9084 7.875 16.3008V24.1758H5.25C3.85761 24.1758 2.52226 24.729 1.53769 25.7135C0.553123 26.6981 0 28.0334 0 29.4258L0 39.9258C0 40.622 0.276562 41.2897 0.768845 41.782C1.26113 42.2743 1.92881 42.5508 2.625 42.5508H39.375C40.0712 42.5508 40.7389 42.2743 41.2312 41.782C41.7234 41.2897 42 40.622 42 39.9258V29.4258C42 28.0334 41.4469 26.6981 40.4623 25.7135C39.4777 24.729 38.1424 24.1758 36.75 24.1758H34.125V16.3008C34.125 14.9084 33.5719 13.5731 32.5873 12.5885C31.6027 11.604 30.2674 11.0508 28.875 11.0508H22.3125V5.29159C22.6746 4.96181 22.9002 4.50846 22.9449 4.02072C22.9896 3.53298 22.8502 3.04618 22.554 2.65609L20.9843 0.584961ZM10.5 16.3008C10.5 15.6046 10.7766 14.937 11.2688 14.4447C11.7611 13.9524 12.4288 13.6758 13.125 13.6758H28.875C29.5712 13.6758 30.2389 13.9524 30.7312 14.4447C31.2234 14.937 31.5 15.6046 31.5 16.3008V17.3876C31.1847 17.3894 30.8722 17.3281 30.581 17.2073C30.2898 17.0865 30.0257 16.9086 29.8043 16.6841C29.3377 16.2171 28.7836 15.8466 28.1737 15.5938C27.5639 15.3411 26.9102 15.2109 26.25 15.2109C25.5898 15.2109 24.9361 15.3411 24.3263 15.5938C23.7164 15.8466 23.1624 16.2171 22.6957 16.6841C22.2459 17.1336 21.6359 17.386 21 17.386C20.3641 17.386 19.7541 17.1336 19.3043 16.6841C18.8376 16.2171 18.2836 15.8466 17.6737 15.5938C17.0639 15.3411 16.4102 15.2109 15.75 15.2109C15.0898 15.2109 14.4361 15.3411 13.8263 15.5938C13.2164 15.8466 12.6624 16.2171 12.1958 16.6841C11.9743 16.9086 11.7102 17.0865 11.419 17.2073C11.1278 17.3281 10.8153 17.3894 10.5 17.3876V16.3008ZM10.5 20.0126C11.7863 20.0126 13.0725 19.5217 14.0543 18.5426C14.5041 18.0931 15.1141 17.8406 15.75 17.8406C16.3859 17.8406 16.9959 18.0931 17.4458 18.5426C19.4093 20.5035 22.5908 20.5035 24.5543 18.5426C25.0041 18.0931 25.6141 17.8406 26.25 17.8406C26.8859 17.8406 27.4959 18.0931 27.9457 18.5426C28.9275 19.5217 30.2138 20.0126 31.5 20.0126V24.1758H10.5V20.0126ZM2.625 29.4258C2.625 28.7296 2.90156 28.062 3.39384 27.5697C3.88613 27.0774 4.55381 26.8008 5.25 26.8008H36.75C37.4462 26.8008 38.1139 27.0774 38.6062 27.5697C39.0984 28.062 39.375 28.7296 39.375 29.4258V31.5075L38.4458 32.4367C38.2229 32.6597 37.9584 32.8365 37.6672 32.9572C37.376 33.0779 37.0639 33.14 36.7487 33.14C36.4335 33.14 36.1214 33.0779 35.8302 32.9572C35.539 32.8365 35.2744 32.6597 35.0516 32.4367C34.5851 31.9701 34.0312 31.5999 33.4216 31.3474C32.8119 31.0949 32.1585 30.9649 31.4987 30.9649C30.8388 30.9649 30.1854 31.0949 29.5758 31.3474C28.9662 31.5999 28.4123 31.9701 27.9457 32.4367C27.4959 32.8862 26.8859 33.1387 26.25 33.1387C25.6141 33.1387 25.0041 32.8862 24.5543 32.4367C24.0877 31.9697 23.5336 31.5992 22.9237 31.3464C22.3139 31.0937 21.6602 30.9636 21 30.9636C20.3398 30.9636 19.6861 31.0937 19.0763 31.3464C18.4664 31.5992 17.9124 31.9697 17.4458 32.4367C16.9959 32.8862 16.3859 33.1387 15.75 33.1387C15.1141 33.1387 14.5041 32.8862 14.0543 32.4367C13.5876 31.9697 13.0336 31.5992 12.4237 31.3464C11.8139 31.0937 11.1602 30.9636 10.5 30.9636C9.83983 30.9636 9.18614 31.0937 8.57628 31.3464C7.96642 31.5992 7.41235 31.9697 6.94575 32.4367C6.49587 32.8862 5.88594 33.1387 5.25 33.1387C4.61406 33.1387 4.00413 32.8862 3.55425 32.4367L2.625 31.5075V29.4258ZM33.1958 34.2926C33.9939 35.0907 35.0375 35.5969 36.1584 35.7298C37.2794 35.8626 38.4124 35.6144 39.375 35.025V39.9258H2.625V35.025C4.55963 36.2115 7.12688 35.97 8.80425 34.29C9.25413 33.8405 9.86406 33.588 10.5 33.588C11.1359 33.588 11.7459 33.8405 12.1958 34.29C14.1593 36.2535 17.3408 36.2535 19.3043 34.29C19.7541 33.8405 20.3641 33.588 21 33.588C21.6359 33.588 22.2459 33.8405 22.6957 34.29C24.6593 36.2535 27.8407 36.2535 29.8016 34.29C30.0244 34.067 30.289 33.8901 30.5802 33.7695C30.8714 33.6488 31.1835 33.5867 31.4987 33.5867C31.8139 33.5867 32.126 33.6488 32.4172 33.7695C32.7084 33.8901 32.9729 34.067 33.1958 34.29V34.2926Z" fill="#FFCD00"/>
</g>
<defs>
<clipPath id="clip0_2196_737">
<rect width="42" height="42" fill="white" transform="translate(0 0.550781)"/>
</clipPath>
</defs>
</svg>
