<svg width="25" height="25" viewBox="0 0 25 25" fill="none" xmlns="http://www.w3.org/2000/svg">
<path d="M18.2285 12.5C18.8253 12.5 19.3975 12.7371 19.8195 13.159C20.2415 13.581 20.4785 14.1533 20.4785 14.75V15.5C20.4785 18.4565 17.6885 21.5 12.9785 21.5C8.26852 21.5 5.47852 18.4565 5.47852 15.5V14.75C5.47852 14.1533 5.71557 13.581 6.13753 13.159C6.55948 12.7371 7.13178 12.5 7.72852 12.5H18.2285ZM18.2285 14H7.72852C7.5296 14 7.33884 14.079 7.19819 14.2197C7.05753 14.3603 6.97852 14.5511 6.97852 14.75V15.5C6.97852 17.657 9.12652 20 12.9785 20C16.8305 20 18.9785 17.657 18.9785 15.5V14.75C18.9785 14.5511 18.8995 14.3603 18.7588 14.2197C18.6182 14.079 18.4274 14 18.2285 14ZM12.9785 2.75C14.0725 2.75 15.1217 3.1846 15.8953 3.95818C16.6689 4.73177 17.1035 5.78098 17.1035 6.875C17.1035 7.96902 16.6689 9.01823 15.8953 9.79182C15.1217 10.5654 14.0725 11 12.9785 11C11.8845 11 10.8353 10.5654 10.0617 9.79182C9.28811 9.01823 8.85352 7.96902 8.85352 6.875C8.85352 5.78098 9.28811 4.73177 10.0617 3.95818C10.8353 3.1846 11.8845 2.75 12.9785 2.75ZM12.9785 4.25C12.2823 4.25 11.6146 4.52656 11.1224 5.01884C10.6301 5.51113 10.3535 6.17881 10.3535 6.875C10.3535 7.57119 10.6301 8.23887 11.1224 8.73116C11.6146 9.22344 12.2823 9.5 12.9785 9.5C13.6747 9.5 14.3424 9.22344 14.8347 8.73116C15.327 8.23887 15.6035 7.57119 15.6035 6.875C15.6035 6.17881 15.327 5.51113 14.8347 5.01884C14.3424 4.52656 13.6747 4.25 12.9785 4.25Z" fill="#282828"/>
</svg>
