<svg width="25" height="25" viewBox="0 0 25 25" fill="none" xmlns="http://www.w3.org/2000/svg">
<g id="Outline / Search / Minimalistic Magnifer">
<path id="Vector" fill-rule="evenodd" clip-rule="evenodd" d="M11.7432 3.39734C6.91067 3.39734 2.99316 7.31485 2.99316 12.1473C2.99316 16.9798 6.91067 20.8973 11.7432 20.8973C16.5757 20.8973 20.4932 16.9798 20.4932 12.1473C20.4932 7.31485 16.5757 3.39734 11.7432 3.39734ZM1.49316 12.1473C1.49316 6.48642 6.08225 1.89734 11.7432 1.89734C17.4041 1.89734 21.9932 6.48642 21.9932 12.1473C21.9932 17.8083 17.4041 22.3973 11.7432 22.3973C6.08225 22.3973 1.49316 17.8083 1.49316 12.1473ZM19.7128 20.117C20.0057 19.8241 20.4806 19.8241 20.7735 20.117L22.7735 22.117C23.0664 22.4099 23.0664 22.8848 22.7735 23.1777C22.4806 23.4706 22.0057 23.4706 21.7128 23.1777L19.7128 21.1777C19.4199 20.8848 19.4199 20.4099 19.7128 20.117Z" fill="#777777"/>
</g>
</svg>
