<svg width="87" height="53" viewBox="0 0 87 53" fill="none" xmlns="http://www.w3.org/2000/svg">
<path d="M78.0008 45.5345C75.2704 45.5345 68.3451 45.5345 65.6148 45.5345C65.4484 45.5345 65.3791 45.5666 65.3422 45.7406C65.0273 47.3424 64.2307 48.8123 63.0573 49.9568C61.8839 51.1013 60.3886 51.867 58.768 52.153C57.7713 52.3596 56.7462 52.3953 55.7373 52.2584C55.608 52.2584 55.5664 52.208 55.571 52.0797C55.571 51.3774 55.571 50.6766 55.571 49.9774C55.571 49.8446 55.608 49.8079 55.742 49.8217C56.0931 49.8583 56.4442 49.8949 56.7999 49.9087C57.9762 49.9549 59.1368 49.6287 60.1136 48.9773C61.0904 48.3259 61.8327 47.3832 62.233 46.2857C62.3069 46.0979 62.3577 45.8964 62.4316 45.704C62.5055 45.5116 62.4316 45.5162 62.2838 45.5162C61.406 45.5162 60.5236 45.5162 59.6458 45.5162H55.7835C55.608 45.5162 55.5664 45.4704 55.5664 45.3009C55.5664 42.394 55.5664 39.4931 55.5664 36.5984C55.5664 36.4335 55.5987 36.3877 55.7743 36.3648C57.4503 36.1376 59.1568 36.3936 60.6899 37.1022C61.8833 37.6146 62.931 38.4104 63.7408 39.4193C64.5505 40.4282 65.0973 41.6191 65.3329 42.8871C65.3699 43.0566 65.4253 43.1161 65.6101 43.1161C67.8 43.1161 74.1893 43.1161 76.3792 43.1161C76.5594 43.1161 76.6102 43.052 76.6425 42.8963C76.9602 41.288 77.7612 39.8126 78.9403 38.664C80.1194 37.5155 81.6215 36.7475 83.249 36.461C84.2453 36.2939 85.2558 36.2249 86.2658 36.2548C86.4183 36.2548 86.4414 36.3236 86.4368 36.4518C86.4368 36.9098 86.4368 37.3358 86.4368 37.7801C86.4368 40.2809 86.4368 42.7863 86.4368 45.2872C86.4368 45.4841 86.3952 45.5437 86.1873 45.5391H78.0008M58.4585 41.0046C58.4585 41.6458 58.4585 42.2871 58.4585 42.9283C58.4585 43.0474 58.4585 43.1253 58.6294 43.1207C59.8614 43.1207 61.0934 43.1207 62.3254 43.1207C62.4593 43.1207 62.4778 43.0795 62.4455 42.9604C62.2125 42.0301 61.7434 41.1743 61.0828 40.4744C60.4221 39.7746 59.5919 39.2539 58.671 38.9618C58.5185 38.9068 58.4539 38.9252 58.4585 39.1084C58.4585 39.7404 58.4585 40.3725 58.4585 41.0046ZM83.5539 41.1374C83.5539 40.5283 83.5539 39.9145 83.5539 39.3053C83.5539 39.1267 83.5077 39.0946 83.3461 39.1633C83.1844 39.232 83.0227 39.2595 82.8841 39.3236C82.0827 39.616 81.3642 40.0954 80.7892 40.7212C80.2143 41.347 79.7998 42.1009 79.5808 42.9192C79.5438 43.0566 79.53 43.1253 79.7148 43.1253C80.9468 43.1253 82.1787 43.1253 83.4107 43.1253C83.5493 43.1253 83.5955 43.0932 83.5909 42.9466C83.5909 42.3466 83.5909 41.742 83.5909 41.142" fill="#0b4368"/>
<path d="M37.6497 43.0376C38.0563 43.0376 38.4675 43.0376 38.874 43.0376C39.0727 43.0376 39.1235 43.088 39.0912 43.2849C38.8257 44.6675 39.1177 46.0982 39.9043 47.2698C41.1886 49.2301 43.0412 50.137 45.3835 49.7889C47.7258 49.4408 49.1303 48.0255 49.8417 45.8774C50.8581 42.8131 48.7283 39.465 45.7623 38.81C44.9606 38.6635 44.1386 38.6635 43.3369 38.81C43.1151 38.842 43.0781 38.7779 43.0828 38.581C43.0828 37.9031 43.0828 37.2069 43.0828 36.5473C43.0828 36.4191 43.0828 36.3458 43.2629 36.3229C45.0976 36.0579 46.9697 36.3787 48.6082 37.2389C51.528 38.7779 53.0664 41.2284 53.0018 44.4941C52.9417 47.4118 51.4957 49.6332 48.9501 51.1309C47.6728 51.8954 46.2102 52.3022 44.7182 52.3081C40.5002 52.3081 36.9614 49.7294 36.1852 45.5751C36.0536 44.8185 36.0349 44.0469 36.1298 43.2849C36.1298 43.1063 36.2176 43.0467 36.407 43.0513C36.8181 43.0513 37.2339 43.0513 37.6497 43.0513" fill="#0b4368"/>
<path d="M44.5758 45.9973C44.2742 45.9908 43.9812 45.8958 43.7341 45.7242C43.487 45.5527 43.2967 45.3123 43.1875 45.0335C43.0782 44.7547 43.0548 44.45 43.1203 44.158C43.1858 43.8661 43.3372 43.5999 43.5553 43.3933C43.7735 43.1866 44.0485 43.0488 44.3457 42.9972C44.6429 42.9457 44.9488 42.9827 45.2248 43.1036C45.5007 43.2245 45.7343 43.4238 45.8959 43.6764C46.0575 43.9289 46.1399 44.2234 46.1327 44.5224C46.1291 44.7207 46.0859 44.9163 46.0054 45.0978C45.925 45.2794 45.809 45.4434 45.6642 45.5801C45.5193 45.7169 45.3485 45.8238 45.1617 45.8946C44.9749 45.9654 44.7757 45.9988 44.5758 45.9927" fill="#0b4368"/>
<path d="M6.96858 42.3009C6.86232 42.3009 6.80226 42.3925 6.72834 42.4475C5.023 43.772 2.88385 44.4246 0.722432 44.2796C0.583834 44.2796 0.546875 44.2246 0.546875 44.0964C0.546875 43.4643 0.546875 42.8277 0.546875 42.191C0.546875 42.0078 0.639274 42.0124 0.768632 42.0124C1.54796 42.0676 2.3309 41.9807 3.0786 41.7559C4.06502 41.4308 4.94271 40.844 5.61631 40.0591C6.2899 39.2741 6.73363 38.3212 6.89928 37.3038C6.95389 37.0227 6.98786 36.7379 7.00092 36.4519C7.00092 36.2824 7.07484 36.2458 7.23191 36.2504C8.02654 36.2504 8.82117 36.2504 9.6158 36.2504C9.81446 36.2504 9.84217 36.3191 9.84217 36.4931C9.84217 40.2306 9.84217 43.9697 9.84217 47.7102C9.84217 49.1546 9.84217 50.5989 9.84217 52.0432C9.84217 52.2127 9.80521 52.2722 9.62042 52.2676C8.83503 52.2676 8.04964 52.2676 7.26425 52.2676C7.00092 52.2676 6.96858 52.1806 6.9732 51.9562C6.9732 48.8416 6.9732 45.7239 6.9732 42.6032C6.9963 42.5099 6.9963 42.4125 6.9732 42.3192" fill="#0b4368"/>
<path d="M21.0641 38.6995C22.1689 38.6995 23.2488 39.0243 24.1673 39.6327C25.0858 40.2412 25.8017 41.1061 26.2245 42.1179C26.6472 43.1298 26.7578 44.2432 26.5423 45.3174C26.3268 46.3916 25.7948 47.3783 25.0137 48.1527C24.2325 48.9271 23.2373 49.4545 22.1538 49.6682C21.0703 49.8819 19.9473 49.7722 18.9267 49.3531C17.9061 48.934 17.0337 48.2242 16.42 47.3136C15.8062 46.4029 15.4787 45.3323 15.4787 44.237C15.4787 42.7684 16.0671 41.3599 17.1146 40.3214C18.1621 39.2829 19.5828 38.6995 21.0641 38.6995ZM21.0641 35.9238C19.4059 35.9247 17.7852 36.4131 16.4069 37.3271C15.0285 38.2411 13.9545 39.5398 13.3206 41.0589C12.6866 42.578 12.5212 44.2494 12.8453 45.8617C13.1693 47.474 13.9683 48.9548 15.1412 50.117C16.3141 51.2792 17.8082 52.0705 19.4346 52.3909C21.061 52.7113 22.7468 52.5464 24.2787 51.917C25.8106 51.2877 27.1199 50.2222 28.0411 48.8552C28.9623 47.4881 29.4539 45.8811 29.4539 44.237C29.4515 42.0322 28.5666 39.9184 26.9936 38.3598C25.4207 36.8011 23.2881 35.925 21.0641 35.9238Z" fill="#0b4368"/>
<path d="M28.7234 20.6778C28.6495 18.7724 28.5756 16.8624 28.5617 14.9525C28.534 10.3722 28.8712 5.82852 28.8759 1.26198C28.8878 1.15547 28.8651 1.04797 28.8112 0.955097C28.7545 0.902024 28.6863 0.862474 28.6118 0.839456C28.5374 0.816439 28.4586 0.810561 28.3815 0.822269L22.7129 0.858911C22.4021 0.832054 22.089 0.861544 21.7889 0.945936C21.5071 1.0696 21.4332 1.32152 21.2899 1.59176C20.9527 2.22384 20.6478 2.87424 20.366 3.5338C20.2145 3.84265 20.1311 4.17988 20.1211 4.52314C20.1205 4.69431 20.1711 4.86181 20.2665 5.00448C20.3619 5.14715 20.4978 5.25858 20.657 5.32469C20.8695 5.3934 21.119 5.35675 21.2946 5.49874C21.3659 5.57594 21.4197 5.6674 21.4524 5.76695C21.485 5.8665 21.4958 5.97183 21.484 6.07586C21.4424 12.8501 21.6642 19.6747 21.3454 26.4627C21.3454 26.7879 21.3454 27.1818 21.6364 27.3421C21.7815 27.4055 21.9406 27.4307 22.0984 27.4154H28.2522C28.3519 27.4303 28.4536 27.4223 28.5497 27.3921C28.6458 27.362 28.7337 27.3104 28.8066 27.2414C28.8775 27.1227 28.9083 26.9847 28.8943 26.8475C28.8943 24.7909 28.8066 22.7252 28.7234 20.6778Z" fill="#0b4368"/>
<path d="M19.5487 6.50594C19.38 6.5071 19.2151 6.55543 19.0729 6.64536C18.9307 6.7353 18.817 6.8632 18.7448 7.01435C17.4759 9.68923 16.441 11.8496 15.6402 13.4955C15.1783 14.439 14.8872 14.9108 14.7486 14.9108C14.4806 14.9108 14.148 14.4985 13.7553 13.6832L8.2114 1.57755C7.9573 1.05081 7.7494 0.785156 7.62466 0.785156C6.92244 0.785156 5.87833 0.785156 4.47849 0.853861C3.07865 0.922565 2.01607 0.927145 1.31846 0.927145C0.773308 0.927145 0.500732 1.05539 0.500732 1.30273V1.62793C0.63009 8.01743 0.814887 14.2924 0.699389 20.7048C0.653189 23.453 0.500732 25.5004 0.500732 26.8699C0.488665 27.0167 0.517427 27.1641 0.58389 27.2959C0.64549 27.3783 0.799487 27.4195 1.04588 27.4195H7.43063C7.78636 27.4195 7.96654 27.1997 7.96654 26.76C7.96654 23.0545 7.77712 19.3582 7.77712 15.6528C7.75763 15.4636 7.79799 15.2731 7.89262 15.1077C7.96616 15.1623 8.0262 15.2328 8.06818 15.3138C8.66261 16.5597 9.55734 18.5811 10.7524 21.3781C11.8673 24.0225 12.762 26.0363 13.4365 27.4195C13.5659 27.6714 13.9586 27.7951 14.6192 27.7951C14.8732 27.8084 15.1276 27.8084 15.3815 27.7951C15.4916 27.7494 15.5901 27.6801 15.67 27.5922C15.7499 27.5043 15.8091 27.4 15.8435 27.2867C17.4235 23.6866 18.7726 19.9949 20.3387 16.3902C20.3861 16.2801 20.4112 16.1618 20.4126 16.0421V7.39451C20.4151 7.16361 20.3259 6.94099 20.1643 6.77474C20.0027 6.60849 19.7815 6.51194 19.5487 6.50594Z" fill="#0b4368"/>
<path d="M86.5011 27.2088H78.5502V12.7306C78.5502 10.8389 77.9635 8.78235 74.9605 8.78693C71.7682 8.78693 71.3755 11.1046 71.3939 12.7306V27.2088H63.443V12.9183C63.4042 11.3598 63.6801 9.80935 64.2546 8.3581C64.829 6.90685 65.6903 5.58412 66.7879 4.46772C67.8358 3.35911 69.1067 2.48092 70.5185 1.88997C71.9303 1.29902 73.4514 1.00846 74.9836 1.03708C78.6796 1.03708 81.6456 2.36537 83.8816 5.02193C85.6279 7.09528 86.5011 9.98391 86.5011 13.6878V27.2088Z" fill="#0b4368"/>
<path d="M45.8819 0.551098C43.225 0.568359 40.633 1.36626 38.4335 2.84392C36.234 4.32157 34.5258 6.41263 33.5249 8.8527C32.524 11.2928 32.2753 13.9723 32.8104 16.5525C33.3454 19.1326 34.6401 21.4976 36.5307 23.3483C38.4214 25.199 40.8231 26.4524 43.4322 26.95C46.0413 27.4475 48.7406 27.167 51.1888 26.1437C53.6371 25.1204 55.7243 23.4005 57.1867 21.2012C58.649 19.002 59.4208 16.4222 59.4044 13.7881C59.3941 12.0384 59.0361 10.3079 58.3508 8.69544C57.6655 7.083 56.6663 5.62029 55.4105 4.39093C54.1546 3.16157 52.6666 2.18968 51.0316 1.53081C49.3967 0.871946 47.6467 0.53903 45.8819 0.551098ZM48.1456 25.2846C46.8122 25.4441 45.4608 25.3681 44.154 25.0602C44.1331 25.0538 44.1153 25.0398 44.1042 25.021C44.0931 25.0022 44.0896 24.98 44.0942 24.9587C44.0988 24.9374 44.1114 24.9186 44.1293 24.9061C44.1472 24.8935 44.1692 24.888 44.191 24.8907C52.4006 26.4343 58.8085 18.0203 55.9441 10.5728C55.4317 9.19829 54.6008 7.9624 53.5182 6.96473C52.4357 5.96706 51.1318 5.23552 49.7118 4.82909C45.8218 3.69317 41.2527 5.16803 39.3077 8.79562C37.0578 12.9179 38.6378 18.1073 43.2347 19.6646C46.3439 20.7914 50.0583 19.3211 51.3242 16.2432C52.7101 13.2064 50.6219 9.67503 47.4157 9.05669C46.3988 8.87065 45.3482 9.03213 44.4358 9.51472C42.6803 10.4308 41.5207 12.8263 42.4585 14.6996C43.6551 17.0676 47.4619 17.7547 48.6492 14.9882C48.8182 14.635 48.9051 14.2487 48.9034 13.8579C48.9017 13.467 48.8115 13.0815 48.6394 12.7298C48.4674 12.3781 48.2179 12.0692 47.9093 11.8259C47.6008 11.5825 47.241 11.411 46.8567 11.3239C45.3691 10.9392 44.2834 12.185 44.3434 13.6141C44.3434 14.4843 45.1889 14.9469 46.0574 14.9011C46.6673 14.9011 47.1616 14.6263 47.2078 13.9851C47.254 13.3438 47.0184 12.8171 46.2838 12.7805C46.2721 12.7805 46.2604 12.7781 46.2497 12.7734C46.239 12.7687 46.2293 12.7618 46.2215 12.7532C46.2136 12.7445 46.2077 12.7343 46.2041 12.7232C46.2005 12.7121 46.1994 12.7004 46.2007 12.6889C46.204 12.667 46.2152 12.6471 46.2322 12.6328C46.2492 12.6185 46.2708 12.6107 46.2931 12.611C46.4673 12.6154 46.64 12.6447 46.8059 12.698C47.3649 12.8537 47.5358 13.5042 47.4989 13.9988C47.4947 14.1743 47.4554 14.3471 47.3832 14.5074C47.3111 14.6676 47.2075 14.812 47.0785 14.9322C46.9496 15.0524 46.7978 15.146 46.632 15.2075C46.4662 15.269 46.2898 15.2972 46.1129 15.2905C44.4682 15.4599 43.498 14.2324 43.9092 12.6614C44.6899 9.32693 49.2637 10.3712 49.7534 13.3209C50.2431 16.2706 47.3649 18.5791 44.5282 17.7134C39.7697 16.3393 39.7697 10.6644 43.7244 8.33759C47.4573 6.11615 52.3729 8.88722 53.2183 12.9179C53.8189 15.5882 52.5531 18.4142 50.4002 20.054C47.1662 22.6601 42.1305 22.1059 39.2615 19.202C34.0225 13.9484 37.0624 4.94817 44.1494 3.29927C45.7866 2.88374 47.4988 2.85186 49.1506 3.20616C50.8023 3.56046 52.3482 4.2912 53.6657 5.34051C54.9831 6.38981 56.0361 7.72885 56.7411 9.25156C57.4461 10.7743 57.7838 12.4388 57.7274 14.1133C57.6673 19.4265 53.611 24.648 48.1456 25.303" fill="#0b4368"/>
</svg>
