<svg xmlns="http://www.w3.org/2000/svg" viewBox="0 0 1042.51 648.48"><defs><style>.cls-1{fill:#fff;}</style></defs><g id="Layer_2" data-name="Layer 2"><g id="Layer_1-2" data-name="Layer 1"><path class="cls-1" d="M226.88,114.52c-6.82,57.65-10.57,104.37-12.71,138.09-.18,2.69-.36,5.55-.45,8.6,0,.62-.05,1.25-.07,1.89-.07-1.93-.08-3.79-.05-5.62v-.41c.05-4.64.31-8.93.57-12.87,2.05-32.21,5.56-76.3,11.81-130.45a.7.7,0,0,1,.9.77"/><path class="cls-1" d="M814.66,271.78a142.08,142.08,0,0,1-12.92,42.86c-9.87,20.4-17.18,35.46-31,38.81-21,5.12-39.06-21.42-60.08-12.75-.28.1-2.62,1.36-5.64,3.2a105.9,105.9,0,0,0-12.4,8.8c-2.84,2.32-99,76-266.79,96.38-72.53,8.83-139,16-186.78-25.41a125.21,125.21,0,0,1-13.45-13.62c-26.51-31.34-33.67-70.64-33.14-110.7.57,37.11,8.5,73.15,33.14,102.3a124.31,124.31,0,0,0,13.45,13.62c47.73,41.36,114.25,34.23,186.78,25.41,167.75-20.42,263.95-94.06,266.79-96.39a106.37,106.37,0,0,1,12.4-8.77c3-1.87,5.36-3.11,5.64-3.23,21-8.66,39,17.87,60.08,12.76,13.8-3.35,21.11-18.4,31-38.8a140.76,140.76,0,0,0,11.6-34.89.7.7,0,0,1,1.32.42"/><path class="cls-1" d="M1042.43,297.52a7.72,7.72,0,0,1-2,3.35q-16.34,18.84-32.7,37.64a2.74,2.74,0,0,1-1.06.88c-.92.31-1.85-.38-2.59-1-7.5-6.41-16.2-11.3-25.16-15.45-5.3-2.44-10.94-4.68-16.77-4.44-6.36.3-12.26,3.57-17,7.77-5,4.38-6.93,7.08-12.64,14.27a253.32,253.32,0,0,1-23.85,25.75,169.76,169.76,0,0,1-16.22,13.18,205,205,0,0,1-10.07,36.28c-3.08,7.95-7.46,17.46-16,23.71-1.81,1.34-6.13,4.36-23.13,8.65a348.18,348.18,0,0,1-47,8.09l11.51-5.43c4-1.88,7.94-4,11.7-6.11,7.21-1.23,15.45-2.83,23.78-4.94,17-4.3,21.32-7.32,23.13-8.66,8.5-6.25,12.88-15.75,16-23.71a205.47,205.47,0,0,0,10.07-36.28,166.7,166.7,0,0,0,16.22-13.18,253.32,253.32,0,0,0,23.85-25.75c5.71-7.19,7.65-9.87,12.64-14.27,4.78-4.2,10.68-7.46,17-7.77,5.83-.24,11.47,2,16.77,4.43,9,4.17,17.66,9.06,25.16,15.45.74.64,1.67,1.34,2.59,1a2.81,2.81,0,0,0,1.06-.87q16.34-18.78,32.68-37.62c1.41,1.44,2.42,3.12,2,5"/><path class="cls-1" d="M827.32,157.71,787.26,191c-4.4-11.56-19.85-29.15-32.24-35l5.8-5c11,7.67,22.71,21.81,26.44,31.62L824.08,152q1.7,2.77,3.24,5.72"/><path class="cls-1" d="M146.37,264.16l-40.05,33.28c-4.39-11.58-19.84-29.15-32.25-35l5.79-5c11,7.63,22.74,21.79,26.46,31.6l36.81-30.59q1.69,2.78,3.24,5.72"/><path class="cls-1" d="M55.11,153.67C48.85,187.06,37.25,245.1,31,283.9c-2.39,16.09-4.45,28.74-5,40.94,0,.65-.07,1.29-.09,1.94-.05-1.89-.06-3.79-.05-5.69V321C26,307.33,28.31,293.59,31,275.5c6.1-37.76,17.23-93.72,23.59-127.45,1.07.41,1.1,3.07.53,5.62"/><path class="cls-1" d="M98.11,412.05c-5,20.66-17.14,41.57-37.77,49.29-29.51,11.45-53.5-11.57-58-39.91C.24,409.63-.09,397.73,0,385.87A171.6,171.6,0,0,0,2.33,413c4.51,28.34,28.5,51.36,58,39.9,20.63-7.72,32.76-28.63,37.77-49.3.47-1.7,3-13.71,4-22.31,1.8,3.64-3.25,28.22-4,30.72"/><path class="cls-1" d="M192.46,293.68c0,1.12,0,2.25,0,3.38,0,.77,0,1.52,0,2.29,0-1.9,0-3.78,0-5.67"/><path class="cls-1" d="M0,380c0,1.13,0,2.27,0,3.4,0,.83,0,1.67,0,2.5,0-2,0-3.94,0-5.9"/><path class="cls-1" d="M814.66,259.72c-.13.95-.28,1.93-.44,2.92-.61,3.88-1.44,8.13-2.58,12.69a140.13,140.13,0,0,1-9.9,27.24c-9.87,20.4-17.18,35.46-31,38.81-21,5.12-39.06-21.43-60.08-12.77-.28.12-2.62,1.38-5.64,3.23a107.13,107.13,0,0,0-12.4,8.78c-2.84,2.33-99,76-266.79,96.39-72.53,8.83-139,16-186.78-25.42A122.57,122.57,0,0,1,225.62,398c-24.35-28.78-32.37-64.29-33.11-100.91,0-1.13,0-2.26,0-3.38-.26-30.77,4.41-62.2,8.7-91A581,581,0,0,1,225.5,102.12a.71.71,0,0,1,1.38.33c-.12,1-.23,2-.36,3-.35,3-.67,5.89-1,8.78l0,0c-5.95,52.27-9.33,94.92-11.33,126.33-.31,4.94-.65,10.46-.57,16.53v.41c0,1.83,0,3.69.05,5.62,0-.64,0-1.27.06-1.89a109,109,0,0,0,6,31.83s11.42,32.75,46,59.82c43.07,33.78,185.83,36.95,368.39-6.57l.13-.05c48.48-21.27,69.67-36.33,79.84-46.6,3.17-3.22,13.13-13.91,26.6-13.94a29.11,29.11,0,0,1,13.91,3.72l.1.05c3.07,2.29,9.93,7,19.33,7a37.07,37.07,0,0,0,9.61-1.12c10.35-2.75,21.78-16.32,29.71-36a.71.71,0,0,1,1.37.35"/><path class="cls-1" d="M213.72,261.21c0,.62-.05,1.25-.07,1.89-.07-1.93-.08-3.79-.05-5.62,0,1.22.05,2.45.12,3.73"/><path class="cls-1" d="M1042.43,285.45a4.47,4.47,0,0,1-.35,1,10.65,10.65,0,0,1-1.68,2.32l-1.82,2.1q-15.42,17.78-30.88,35.54a2.64,2.64,0,0,1-1.06.87c-.92.32-1.85-.36-2.59-1-7.5-6.41-16.2-11.3-25.16-15.45-5.3-2.44-10.94-4.68-16.77-4.43-6.36.29-12.26,3.56-17,7.75-5,4.4-6.93,7.09-12.64,14.29a253.32,253.32,0,0,1-23.85,25.75,172.93,172.93,0,0,1-16.22,13.18,205.47,205.47,0,0,1-10.07,36.28c-3.08,7.94-7.46,17.46-16,23.7-1.81,1.33-6.13,4.37-23.13,8.65-5.14,1.29-10.24,2.41-15.08,3.35-8.32,1.64-15.87,2.77-21.55,3.54-6,.78-9.84,1.12-10.31,1.17.73-.36,10.69-5,11.46-5.39,23.72-11.2,44.93-29.06,44.93-29.06,2-1.7,4.1-3.49,6.18-5.42q4.26-4,8-8c-6,.9-13.26.59-19.83-3.54-11.55-7.26-13.38-21.27-13.87-29.73a55,55,0,0,1,.08-7.26c.59,8.52,2.75,21.63,13.79,28.58,10.46,6.58,22.67,3.52,28.81,1.21,1.37-1.81,2.66-3.59,3.87-5.36-1.18.62-18.54,9.37-32.68.49-10.27-6.46-12.85-18.26-13.64-26.73-.1-1.06-.18-2.06-.23-3,0-.41-.05-.82-.05-1.23a.38.38,0,0,1,0-.15c-.34-10.75,2.49-21.45,6.36-31.52,4-10.33,9.21-20.52,17.66-27.63s20.62-10.64,30.85-6.49c9.73,4,14.18,12.9,16.4,17.58a44.66,44.66,0,0,1,4.3,16.3c24.17-5.55,39.93-23,55.3-41.56l38.07-46a2,2,0,0,1,3.49.66c2.35,7.4,9.82,21.48,11.07,23.49a91.62,91.62,0,0,0,21.43,24c2.34,1.83,5,4.22,4.45,7.11"/><path class="cls-1" d="M827.32,145.65l-1.38,1.14-3.37,2.8-35.31,29.33c-3.47-9.14-13.83-22-24.15-29.92a48.85,48.85,0,0,0-5.46-3.71c-.88-.53-1.77-1-2.63-1.39l39.25-33.85a89.56,89.56,0,0,1,33.05,35.6"/><path class="cls-1" d="M628.75,152q1.69,2.77,3.24,5.72L591.93,191c-3.34-8.76-13-21-22.92-28.95L534.13,191c-4.38-11.55-19.83-29.15-32.22-35l5.79-5c11,7.65,22.72,21.81,26.43,31.62l29.45-24.46,5.43-4.49c1.65,1.32,3.3,2.76,4.92,4.3,8,7.63,15.22,17.34,18,24.65Z"/><path class="cls-1" d="M632,145.65l-1.38,1.14-3.38,2.81-35.3,29.32c-3.09-8.13-11.62-19.23-20.73-27.13l-.25.2c-.19-.31-.37-.62-.59-.93-.45-.38-.89-.75-1.35-1.11l-2.29,1.89L561,156.62l-26.85,22.3c-3.46-9.14-13.81-22-24.13-29.94a51.45,51.45,0,0,0-5.46-3.69,29.09,29.09,0,0,0-2.63-1.39l39.24-33.85a88.61,88.61,0,0,1,27.42,26.2l30.37-26.2a89.56,89.56,0,0,1,33,35.6"/><path class="cls-1" d="M146.37,252.08,145,253.23,141.61,256l-35.29,29.33c-3.47-9.14-13.82-22-24.15-29.94a54.11,54.11,0,0,0-5.46-3.69c-.89-.52-1.77-1-2.64-1.39l39.26-33.84a89.59,89.59,0,0,1,33,35.57"/><path class="cls-1" d="M102.37,374.2c-.11,1.94-.37,4.26-.71,6.72-1.15,8.11-3.14,17.56-3.55,19.06-5,20.67-17.14,41.58-37.77,49.28-29.51,11.46-53.5-11.56-58-39.89a170,170,0,0,1-2.29-26c0-1.13,0-2.27,0-3.4C-.06,371.3.24,362.64.37,354c.2-35.19,8-84.4,15-108.46a711.08,711.08,0,0,1,33-101.24c1-2.67,3-6.39,4.65-7.82l.19-.16c2.13-1.57,2.58,1.23,2.08,4.28,0,.33-.1.64-.18,1-.39,2.06-.79,4.2-1.21,6.44-6.46,34-17,87.36-22.91,123.78-2.92,19.72-5.34,34.26-5.12,49.15v.11c0,1.9,0,3.8.05,5.69,0-.65,0-1.29.09-1.94,0,.7.06,1.42.11,2.14,1,27.53,19.33,72.09,53.48,61.52,7.75-3,13.78-9.68,18.85-16.61.9-1.06,1.85-2.6,2.89-3.07,1-.28,1.26,2,1,5.38"/><path class="cls-1" d="M26,324.84c0,.65-.07,1.29-.09,1.94-.05-1.89-.06-3.79-.05-5.69,0,1.25.07,2.49.14,3.75"/><path class="cls-1" d="M476.16,24.22q-1.23,3.91-6.42,11.28a119.94,119.94,0,0,1-8.12,10.39l-.14-.47a14.68,14.68,0,0,1,1.93-5.15,21.61,21.61,0,0,0,2.27-5.19l-.9-.14q-.66,0-7.88,2c-5.2,1.42-8.28,2.22-9.26,2.41a117.16,117.16,0,0,1-21.15,1.74A17.75,17.75,0,0,1,417,38.81a9.13,9.13,0,0,1-4.34-8.27,16.82,16.82,0,0,1,1.23-5.14q1.37-3.82,2.55-3.59l.19.47a3.87,3.87,0,0,0-.38,1.7q0,7.23,15.11,7.23,14.63,0,34.41-5.1,4.77-1.23,9.92-3l.38.43ZM453,8.73a28.37,28.37,0,0,1-2,6.38,22.47,22.47,0,0,1-5.72,1.27,39.55,39.55,0,0,1-6,.61l-1.13,0a10.74,10.74,0,0,1,1.65-6.19,34.42,34.42,0,0,1,6.47-1.32,55.87,55.87,0,0,1,6.8-.71"/><path class="cls-1" d="M501.47,39.89q-3.56.57-14.69,3.21l-.47-.42q-.46-11.8-1.56-35.36Q488.58,2,490.56.85l2,32h1.13a45,45,0,0,0,7.75-1.65Z"/><path class="cls-1" d="M518,27.85l.19.95a8.4,8.4,0,0,1-3.07,6.94,14.71,14.71,0,0,1-7,2.83l-8.88,1.32V31.11q5.15-.84,18.75-3.26M518.23,52a29.16,29.16,0,0,1-1.94,6.28q-.94.66-5.57,1.32a46.07,46.07,0,0,1-6.09.57,6.83,6.83,0,0,1-1.32-.15v-.37A16.72,16.72,0,0,1,505,54.06a37.9,37.9,0,0,1,6.37-1.32A47.16,47.16,0,0,1,518,52Z"/><path class="cls-1" d="M567.66,39.91q-2.26.27-6.8,1a44.17,44.17,0,0,1-2.74,6.51q-2.46,5-5.33,6.85c-1.74,1.13-4.55,2-8.46,2.64l-8.26,1.32a33.41,33.41,0,0,1-15.2-4,58,58,0,0,1,7.84-2.69q4-.86,14.49-3.17c7.55-1.67,11.73-3,12.51-3.92l0-.42-.43-.85-.56-.38a35.45,35.45,0,0,1-6.23-.33q-3.88-.9-3.88-4a15.73,15.73,0,0,1,1.61-5.33,22.41,22.41,0,0,1,2.69-5,3.11,3.11,0,0,1,2.65-1,6,6,0,0,1,4,1.61c.15.16,1.19,1.27,3.11,3.35,3.72-.31,6.69-.66,8.93-1Z"/><path class="cls-1" d="M592.68,39.89q-2,.53-14.45,2.88l-.42-.47a77.28,77.28,0,0,1-.47-7.74q-3,3.54-12,5.33V31.11q3.68-.37,6.56-.89c2.83-.51,4.52-1.42,5-2.74q0-6.57-1.23-21.3c.51-.59,1.42-1.68,2.74-3.25A11.5,11.5,0,0,1,581.59,0q.51.9,1.18,15.3l.75,17h.8c1.2-.13,4-.54,8.36-1.23Z"/><path class="cls-1" d="M630,25c-.25.95-1.29,3.56-3.12,7.85L599.1,38.12q-1.79,3.06-5.8,8.76l-.15-.19,2.65-8q-3.54.86-5.72,1.23V31.05q1.71-.29,10.34-1.93a49,49,0,0,1,6.23-9.44q5-5.89,8.79-5.89,3,0,7.83,5.62T630,25M617,26a4.37,4.37,0,0,0-1.91-2.89,5.64,5.64,0,0,0-3.38-1.25q-3.91,0-8.35,6.8Q607.88,27.76,617,26"/><polygon class="cls-1" points="376.85 537.58 376.85 581.76 369.6 581.76 369.6 551.5 356.13 581.76 351.11 581.76 337.57 551.5 337.57 581.76 330.32 581.76 330.32 537.58 338.14 537.58 353.65 572.23 369.09 537.58 376.85 537.58"/><path class="cls-1" d="M406.75,579.31a21.47,21.47,0,0,1-8.2-8.07,24,24,0,0,1,0-23.3,21.44,21.44,0,0,1,8.2-8,23.76,23.76,0,0,1,22.75,0,21.15,21.15,0,0,1,8.17,8,24.19,24.19,0,0,1,0,23.3,21.19,21.19,0,0,1-8.17,8.07,23.83,23.83,0,0,1-22.75,0m19.16-5.4a13.87,13.87,0,0,0,5.37-5.72,18.28,18.28,0,0,0,1.94-8.61,18,18,0,0,0-1.94-8.58,13.66,13.66,0,0,0-5.37-5.66,16.49,16.49,0,0,0-15.63,0,13.66,13.66,0,0,0-5.37,5.66,18,18,0,0,0-1.94,8.58,18.28,18.28,0,0,0,1.94,8.61,13.87,13.87,0,0,0,5.37,5.72,16.27,16.27,0,0,0,15.63,0"/><polygon class="cls-1" points="495.64 581.76 488.39 581.76 466.59 548.77 466.59 581.76 459.35 581.76 459.35 537.52 466.59 537.52 488.39 570.44 488.39 537.52 495.64 537.52 495.64 581.76"/><polygon class="cls-1" points="545.28 537.58 545.28 543.5 533.52 543.5 533.52 581.76 526.27 581.76 526.27 543.5 514.45 543.5 514.45 537.58 545.28 537.58"/><path class="cls-1" d="M590.78,572.73H572.29l-3.18,9h-7.56l15.82-44.24h8.39l15.83,44.24H594Zm-2-5.91-7.18-20.53-7.25,20.53Z"/><polygon class="cls-1" points="656.31 581.76 649.07 581.76 627.27 548.77 627.27 581.76 620.02 581.76 620.02 537.52 627.27 537.52 649.07 570.44 649.07 537.52 656.31 537.52 656.31 581.76"/><path class="cls-1" d="M704.05,572.73h-18.5l-3.18,9h-7.56l15.83-44.24H699l15.82,44.24h-7.63Zm-2-5.91-7.18-20.53-7.24,20.53Z"/><path class="cls-1" d="M415.47,648.48a19.32,19.32,0,0,1-5.81-.87,13,13,0,0,1-4.43-2.25l1.67-3.75a13.26,13.26,0,0,0,3.86,2,13.9,13.9,0,0,0,4.71.82,10,10,0,0,0,3.31-.45,4,4,0,0,0,1.86-1.2,2.77,2.77,0,0,0,.59-1.73,2.37,2.37,0,0,0-.85-1.91,6.31,6.31,0,0,0-2.21-1.15,30.45,30.45,0,0,0-3-.78q-1.65-.36-3.3-.87a15.15,15.15,0,0,1-3-1.32,5.93,5.93,0,0,1-3-5.55,7,7,0,0,1,1.13-3.88,7.76,7.76,0,0,1,3.45-2.83,14.34,14.34,0,0,1,5.89-1,18.86,18.86,0,0,1,4.64.59,13.67,13.67,0,0,1,4,1.71l-1.53,3.75a14.17,14.17,0,0,0-3.6-1.54,13.39,13.39,0,0,0-3.56-.5,9.21,9.21,0,0,0-3.23.48,3.9,3.9,0,0,0-1.84,1.28,3,3,0,0,0-.57,1.76,2.41,2.41,0,0,0,.83,1.92,6,6,0,0,0,2.19,1.13q1.35.4,3,.78t3.3.87a14.86,14.86,0,0,1,3,1.3,6.41,6.41,0,0,1,2.21,2.12,6.22,6.22,0,0,1,.83,3.36,7,7,0,0,1-1.13,3.84,7.69,7.69,0,0,1-3.47,2.82,14.3,14.3,0,0,1-5.91,1.06"/><path class="cls-1" d="M436.3,625a2.94,2.94,0,0,1-2.13-.81,2.7,2.7,0,0,1-.84-2,2.62,2.62,0,0,1,.84-1.93,3,3,0,0,1,2.13-.82,3.05,3.05,0,0,1,2.14.77,2.49,2.49,0,0,1,.84,1.95,2.81,2.81,0,0,1-.82,2,2.91,2.91,0,0,1-2.16.83m-2.3,3.27h4.61v19.83H434Z"/><path class="cls-1" d="M459.58,628a9.27,9.27,0,0,1,4.25.93,6.92,6.92,0,0,1,2.94,2.86,9.93,9.93,0,0,1,1.09,4.94v11.36h-4.64V637.34a5.56,5.56,0,0,0-1.22-3.93,4.56,4.56,0,0,0-3.49-1.3,6.17,6.17,0,0,0-2.9.66,4.63,4.63,0,0,0-1.95,2,7.14,7.14,0,0,0-.68,3.32v10h-4.61V628.28h4.42v5.38L452,632a6.88,6.88,0,0,1,3-2.93,9.76,9.76,0,0,1,4.58-1"/><path class="cls-1" d="M486.54,648.37a11.44,11.44,0,0,1-5.55-1.32,9.79,9.79,0,0,1-3.81-3.6,10.8,10.8,0,0,1,0-10.53,9.81,9.81,0,0,1,3.81-3.58,11.44,11.44,0,0,1,5.55-1.32,10.71,10.71,0,0,1,5.09,1.19,7.69,7.69,0,0,1,3.34,3.45l-3.53,2.08a6.07,6.07,0,0,0-2.17-2.06,5.77,5.77,0,0,0-2.77-.69,6.33,6.33,0,0,0-3.08.76,5.45,5.45,0,0,0-2.15,2.16,6.6,6.6,0,0,0-.78,3.28,6.72,6.72,0,0,0,.78,3.31,5.41,5.41,0,0,0,2.15,2.17,6.22,6.22,0,0,0,3.08.76,5.77,5.77,0,0,0,2.77-.69,5.84,5.84,0,0,0,2.17-2.09l3.53,2.08a7.85,7.85,0,0,1-3.34,3.43,10.49,10.49,0,0,1-5.09,1.21"/><path class="cls-1" d="M511.67,648.37a12.07,12.07,0,0,1-5.77-1.32,9.64,9.64,0,0,1-3.83-3.6,10.14,10.14,0,0,1-1.35-5.26,10.29,10.29,0,0,1,1.32-5.25,9.61,9.61,0,0,1,3.64-3.6A10.49,10.49,0,0,1,511,628a10.34,10.34,0,0,1,5.16,1.28,9.17,9.17,0,0,1,3.56,3.59,10.85,10.85,0,0,1,1.3,5.45c0,.18,0,.39,0,.65s0,.49-.05.69H504.4V636.6h14.07l-1.86,1a5.72,5.72,0,0,0-.69-3,5.25,5.25,0,0,0-2-2,5.89,5.89,0,0,0-3-.72,6.12,6.12,0,0,0-3,.72,5,5,0,0,0-2,2.06,6.39,6.39,0,0,0-.71,3.08v.75a6.15,6.15,0,0,0,.8,3.15,5.42,5.42,0,0,0,2.28,2.14,7.44,7.44,0,0,0,3.46.76,7.75,7.75,0,0,0,3-.56,7.08,7.08,0,0,0,2.38-1.63l2.52,2.89a8.84,8.84,0,0,1-3.39,2.38,12.37,12.37,0,0,1-4.63.82"/><polygon class="cls-1" points="545.76 648.11 545.76 623.97 547.8 626.2 540.19 626.2 540.19 622.12 550.54 622.12 550.54 648.11 545.76 648.11"/><path class="cls-1" d="M568.14,621.75a11.76,11.76,0,0,1,6.06,1.48,9.53,9.53,0,0,1,3.84,4.36,16.85,16.85,0,0,1,1.32,7,16.08,16.08,0,0,1-1.62,7.57,11,11,0,0,1-4.47,4.68,13.42,13.42,0,0,1-6.68,1.6,16.54,16.54,0,0,1-3.68-.41,10.74,10.74,0,0,1-3.16-1.23l1.82-3.67a7.72,7.72,0,0,0,2.32,1,12.56,12.56,0,0,0,2.66.27,7.71,7.71,0,0,0,5.81-2.24q2.17-2.25,2.17-6.67c0-.49,0-1.05,0-1.67a10.6,10.6,0,0,0-.28-1.85l1.48,1.59a6.65,6.65,0,0,1-1.82,2.55,8.1,8.1,0,0,1-2.78,1.54,11.57,11.57,0,0,1-3.53.52,10.11,10.11,0,0,1-4.55-1,8,8,0,0,1-3.21-2.78,7.47,7.47,0,0,1-1.19-4.23,7.79,7.79,0,0,1,1.27-4.46,8.21,8.21,0,0,1,3.43-2.91,11.25,11.25,0,0,1,4.84-1m.23,3.78a6.16,6.16,0,0,0-2.64.54,4.16,4.16,0,0,0-1.78,1.52,4.31,4.31,0,0,0-.63,2.36,4,4,0,0,0,1.39,3.21,5.53,5.53,0,0,0,3.77,1.21,6.15,6.15,0,0,0,2.75-.58,4.44,4.44,0,0,0,1.85-1.59,4,4,0,0,0,.67-2.29,4,4,0,0,0-.63-2.2,4.42,4.42,0,0,0-1.82-1.58,6.45,6.45,0,0,0-2.93-.6"/><path class="cls-1" d="M594.84,648.48a18.58,18.58,0,0,1-5.33-.78,12.58,12.58,0,0,1-4.4-2.23l2-3.75a11.18,11.18,0,0,0,3.44,1.86,12.61,12.61,0,0,0,4.18.7,7,7,0,0,0,4.08-1,3.39,3.39,0,0,0,1.48-2.92,3.73,3.73,0,0,0-.63-2.15,4,4,0,0,0-2.15-1.43,14.09,14.09,0,0,0-4.27-.5H587l1.34-14.11h15.26v4.08H590.12l2.56-2.3-1,10.58-2.52-2.3h5.2a16.09,16.09,0,0,1,6.27,1,7.1,7.1,0,0,1,3.45,2.82,7.82,7.82,0,0,1,1.08,4.1,7.8,7.8,0,0,1-4.49,7.21,12.85,12.85,0,0,1-5.83,1.15"/><path class="cls-1" d="M622.46,648.48a10.16,10.16,0,0,1-5.57-1.56,10.71,10.71,0,0,1-3.88-4.55,19.14,19.14,0,0,1,0-14.52,10.68,10.68,0,0,1,3.88-4.54,10.65,10.65,0,0,1,11.1,0,10.61,10.61,0,0,1,3.88,4.54,19.14,19.14,0,0,1,0,14.52,10.64,10.64,0,0,1-3.88,4.55,10.08,10.08,0,0,1-5.53,1.56m0-4.2a5.15,5.15,0,0,0,3.12-1,6.47,6.47,0,0,0,2.1-3,17.9,17.9,0,0,0,0-10.32,6.39,6.39,0,0,0-2.1-3,5.09,5.09,0,0,0-3.12-1,5.2,5.2,0,0,0-3.14,1,6.43,6.43,0,0,0-2.13,3,17.46,17.46,0,0,0,0,10.32,6.51,6.51,0,0,0,2.13,3,5.25,5.25,0,0,0,3.14,1"/></g></g></svg>