<svg width="25" height="25" viewBox="0 0 25 25" fill="none" xmlns="http://www.w3.org/2000/svg">
<g clip-path="url(#clip0_2186_1739)">
<path d="M12.9794 22.1201C12.8321 22.1197 12.6891 22.0704 12.5727 21.9801C8.86607 19.1001 6.31274 16.6201 4.52607 14.1735C2.24607 11.0468 1.72607 8.16013 2.9794 5.59346C3.87274 3.76013 6.4394 2.26013 9.4394 3.13346C10.8698 3.54662 12.1177 4.43265 12.9794 5.6468C13.8411 4.43265 15.089 3.54662 16.5194 3.13346C19.5127 2.27346 22.0861 3.76013 22.9794 5.59346C24.2327 8.16013 23.7127 11.0468 21.4327 14.1735C19.6461 16.6201 17.0927 19.1001 13.3861 21.9801C13.2697 22.0704 13.1267 22.1197 12.9794 22.1201ZM7.73274 4.22013C7.01891 4.19235 6.31098 4.35949 5.68497 4.70363C5.05895 5.04776 4.53847 5.55589 4.1794 6.17346C3.14607 8.29346 3.61274 10.6535 5.60607 13.3801C7.72364 16.1132 10.2043 18.5446 12.9794 20.6068C15.7541 18.5466 18.2347 16.1175 20.3527 13.3868C22.3527 10.6535 22.8127 8.29346 21.7794 6.18013C21.1127 4.8468 19.1127 3.78679 16.8861 4.41346C16.1721 4.62446 15.5102 4.98261 14.943 5.46485C14.3758 5.94708 13.9158 6.54273 13.5927 7.21346C13.5425 7.33574 13.4571 7.44032 13.3473 7.51392C13.2375 7.58752 13.1083 7.62682 12.9761 7.62682C12.8439 7.62682 12.7147 7.58752 12.6049 7.51392C12.4951 7.44032 12.4096 7.33574 12.3594 7.21346C12.0387 6.54106 11.5796 5.94401 11.012 5.46147C10.4444 4.97894 9.78131 4.62179 9.06607 4.41346C8.63274 4.28751 8.184 4.22244 7.73274 4.22013Z" fill="#282828"/>
</g>
<defs>
<clipPath id="clip0_2186_1739">
<rect width="24" height="24" fill="white" transform="translate(0.978516 0.5)"/>
</clipPath>
</defs>
</svg>
