<svg width="24" height="24" viewBox="0 0 24 24" fill="none" xmlns="http://www.w3.org/2000/svg">
<g id="Group 92">
<path id="Vector" d="M23.1357 11.9603L23.13 11.9558C22.1884 11.2281 21.985 9.89375 22.6666 8.93217L22.6711 8.92655C23.6862 7.49703 22.6847 5.49884 20.9202 5.43728H20.9122C19.7265 5.39474 18.777 4.42866 18.7588 3.24541V3.23869C18.7318 1.47781 16.749 0.437849 15.2954 1.42296L15.2908 1.4252C14.3142 2.08679 12.9793 1.85618 12.2682 0.901301C11.2091 -0.519273 9.00145 -0.20471 8.41478 1.45206C8.0203 2.56591 6.81303 3.16145 5.67812 2.79987C3.99047 2.26142 2.40342 3.81409 2.90757 5.50668C3.24555 6.64402 2.62611 7.83846 1.50251 8.20901H1.49686C-0.173843 8.76316 -0.534434 10.9561 0.866104 12.0409L0.870626 12.0442C1.81223 12.773 2.0157 14.1073 1.33295 15.0678L1.32843 15.0735C0.31222 16.503 1.31487 18.5012 3.07938 18.5627H3.0873C4.27306 18.6052 5.22258 19.5724 5.24067 20.7557V20.7624C5.2678 22.5222 7.24933 23.5633 8.70417 22.5782L8.70865 22.5748C9.68533 21.9132 11.0203 22.1438 11.7313 23.0987C12.7894 24.5193 14.997 24.2047 15.5848 22.5479C15.9793 21.433 17.1876 20.8386 18.3214 21.2002H18.3226C20.0102 21.7374 21.5972 20.1859 21.0931 18.4922C20.7551 17.3548 21.3745 16.1615 22.4982 15.7899H22.5027C24.1734 15.2358 24.5351 13.0427 23.1334 11.958" fill="#A3D0EB"/>
<path id="Vector_2" d="M14.2807 14.9452L11.311 11.9754L14.2322 9.05425C14.5245 8.7619 14.5245 8.28643 14.2322 7.99407C13.9399 7.70174 13.4644 7.70172 13.1721 7.994C13.1721 7.99402 13.172 7.99405 13.172 7.99407L9.71934 11.4453L9.71927 11.4453C9.42691 11.7377 9.42691 12.2132 9.71927 12.5055L13.2191 16.0053C13.3679 16.1542 13.5607 16.2253 13.7506 16.2253C13.943 16.2253 14.1359 16.1501 14.2807 16.0053C14.5731 15.713 14.5731 15.2375 14.2807 14.9452Z" fill="#0B4368" stroke="#0B4368"/>
</g>
</svg>
