<svg width="25" height="24" viewBox="0 0 25 24" fill="none" xmlns="http://www.w3.org/2000/svg">
<g id="clarity:heart-line" clip-path="url(#clip0_2321_2555)">
<path id="Vector" d="M12.9794 21.6201C12.8321 21.6197 12.6891 21.5704 12.5727 21.4801C8.86607 18.6001 6.31274 16.1201 4.52607 13.6735C2.24607 10.5468 1.72607 7.66013 2.9794 5.09346C3.87274 3.26013 6.4394 1.76013 9.4394 2.63346C10.8698 3.04662 12.1177 3.93265 12.9794 5.1468C13.8411 3.93265 15.089 3.04662 16.5194 2.63346C19.5127 1.77346 22.0861 3.26013 22.9794 5.09346C24.2327 7.66013 23.7127 10.5468 21.4327 13.6735C19.6461 16.1201 17.0927 18.6001 13.3861 21.4801C13.2697 21.5704 13.1267 21.6197 12.9794 21.6201ZM7.73274 3.72013C7.01891 3.69235 6.31098 3.85949 5.68497 4.20363C5.05895 4.54776 4.53847 5.05589 4.1794 5.67346C3.14607 7.79346 3.61274 10.1535 5.60607 12.8801C7.72364 15.6132 10.2043 18.0446 12.9794 20.1068C15.7541 18.0466 18.2347 15.6175 20.3527 12.8868C22.3527 10.1535 22.8127 7.79346 21.7794 5.68013C21.1127 4.3468 19.1127 3.28679 16.8861 3.91346C16.1721 4.12446 15.5102 4.48261 14.943 4.96485C14.3758 5.44708 13.9158 6.04273 13.5927 6.71346C13.5425 6.83574 13.4571 6.94032 13.3473 7.01392C13.2375 7.08752 13.1083 7.12682 12.9761 7.12682C12.8439 7.12682 12.7147 7.08752 12.6049 7.01392C12.4951 6.94032 12.4096 6.83574 12.3594 6.71346C12.0387 6.04106 11.5796 5.44401 11.012 4.96147C10.4444 4.47894 9.78131 4.12179 9.06607 3.91346C8.63274 3.78751 8.184 3.72244 7.73274 3.72013Z" fill="#282828"/>
</g>
<defs>
<clipPath id="clip0_2321_2555">
<rect width="24" height="24" fill="white" transform="translate(0.978516)"/>
</clipPath>
</defs>
</svg>
