<svg width="22" height="19" viewBox="0 0 22 19" fill="none" xmlns="http://www.w3.org/2000/svg">
<path d="M7.96173 16.4111L8.42605 15.8221L7.96173 16.4111ZM11 3.00088L10.4596 3.52098C10.601 3.66787 10.7961 3.75088 11 3.75088C11.2039 3.75088 11.399 3.66787 11.5404 3.52098L11 3.00088ZM14.0383 16.4111L14.5026 17.0001L14.0383 16.4111ZM8.42605 15.8221C6.91039 14.6273 5.25307 13.4605 3.93829 11.98C2.64922 10.5285 1.75 8.83474 1.75 6.63734H0.25C0.25 9.30287 1.3605 11.3363 2.81672 12.976C4.24723 14.5868 6.07077 15.8755 7.49742 17.0001L8.42605 15.8221ZM1.75 6.63734C1.75 4.48647 2.96537 2.68277 4.62436 1.92444C6.23607 1.18772 8.40166 1.38282 10.4596 3.52098L11.5404 2.48078C9.0985 -0.0562346 6.26409 -0.474369 4.00076 0.560204C1.78471 1.57317 0.25 3.92527 0.25 6.63734H1.75ZM7.49742 17.0001C8.00965 17.4039 8.55954 17.8345 9.11682 18.1602C9.67386 18.4857 10.3096 18.7502 11 18.7502V17.2502C10.6904 17.2502 10.3261 17.1295 9.87361 16.8651C9.42132 16.6008 8.95208 16.2368 8.42605 15.8221L7.49742 17.0001ZM14.5026 17.0001C15.9292 15.8755 17.7528 14.5868 19.1833 12.976C20.6395 11.3363 21.75 9.30287 21.75 6.63734H20.25C20.25 8.83474 19.3508 10.5285 18.0617 11.98C16.7469 13.4605 15.0896 14.6273 13.574 15.8221L14.5026 17.0001ZM21.75 6.63734C21.75 3.92527 20.2153 1.57317 17.9992 0.560204C15.7359 -0.474369 12.9015 -0.0562346 10.4596 2.48078L11.5404 3.52098C13.5983 1.38282 15.7639 1.18772 17.3756 1.92444C19.0346 2.68277 20.25 4.48647 20.25 6.63734H21.75ZM13.574 15.8221C13.0479 16.2368 12.5787 16.6008 12.1264 16.8651C11.6739 17.1295 11.3096 17.2502 11 17.2502V18.7502C11.6904 18.7502 12.3261 18.4857 12.8832 18.1602C13.4405 17.8345 13.9903 17.4039 14.5026 17.0001L13.574 15.8221Z" fill="#facc00" stroke="#facc00" stroke-linecap="round" stroke-linejoin="round"/>
</svg>
