<svg width="25" height="25" viewBox="0 0 25 25" fill="none" xmlns="http://www.w3.org/2000/svg">
<g id="Linear / Essentional, UI / Home Angle">
<path id="Vector" d="M2.60711 13.6054C2.22767 10.9683 2.03795 9.64981 2.57841 8.52247C3.11887 7.39512 4.26923 6.70986 6.56995 5.33933L7.95479 4.51439C10.0441 3.26981 11.0887 2.64752 12.243 2.64752C13.3974 2.64752 14.442 3.26981 16.5313 4.51439L17.9161 5.33933C20.2169 6.70986 21.3672 7.39512 21.9077 8.52247C22.4481 9.64981 22.2584 10.9683 21.879 13.6054L21.6002 15.5427C21.1128 18.9302 20.8691 20.6239 19.694 21.6357C18.519 22.6475 16.7957 22.6475 13.3491 22.6475H11.137C7.69041 22.6475 5.96713 22.6475 4.79207 21.6357C3.617 20.6239 3.3733 18.9302 2.88588 15.5427L2.60711 13.6054Z" stroke="#777777" stroke-width="1.5"/>
<path id="Vector_2" d="M15.2432 18.6473H9.24316" stroke="#777777" stroke-width="1.5" stroke-linecap="round"/>
</g>
</svg>
