<svg width="42" height="43" viewBox="0 0 42 43" fill="none" xmlns="http://www.w3.org/2000/svg">
<g id="hugeicons:happy">
<g id="Group">
<path id="Vector" d="M21 38.5508C30.665 38.5508 38.5 30.7158 38.5 21.0508C38.5 11.3858 30.665 3.55078 21 3.55078C11.335 3.55078 3.5 11.3858 3.5 21.0508C3.5 30.7158 11.335 38.5508 21 38.5508Z" stroke="#FFCD00" stroke-width="2" stroke-linecap="round" stroke-linejoin="round"/>
<path id="Vector_2" d="M14 26.3008C14.815 27.3875 15.8719 28.2695 17.0869 28.877C18.3019 29.4845 19.6416 29.8008 21 29.8008C22.3584 29.8008 23.6981 29.4845 24.9131 28.877C26.1281 28.2695 27.185 27.3875 28 26.3008M26.25 14.0508C26.25 14.0508 24.5 15.8008 24.5 17.5508C25.8125 15.8008 28.4375 15.8008 29.75 17.5508M15.75 14.0508C15.75 14.0508 17.5 15.8008 17.5 17.5508C16.1875 15.8008 13.5625 15.8008 12.25 17.5508" stroke="#FFCD00" stroke-width="2" stroke-linecap="round" stroke-linejoin="round"/>
</g>
</g>
</svg>
