<svg width="25" height="24" viewBox="0 0 25 24" fill="none" xmlns="http://www.w3.org/2000/svg">
<g id="Outline / List / List">
<path id="Vector" fill-rule="evenodd" clip-rule="evenodd" d="M21.1345 7C21.1345 6.58579 20.7987 6.25 20.3845 6.25H4.38452C3.97031 6.25 3.63452 6.58579 3.63452 7C3.63452 7.41421 3.97031 7.75 4.38452 7.75H20.3845C20.7987 7.75 21.1345 7.41421 21.1345 7ZM21.1345 12C21.1345 11.5858 20.7987 11.25 20.3845 11.25H9.38452C8.97031 11.25 8.63452 11.5858 8.63452 12C8.63452 12.4142 8.97031 12.75 9.38452 12.75H20.3845C20.7987 12.75 21.1345 12.4142 21.1345 12ZM21.1345 17C21.1345 16.5858 20.7987 16.25 20.3845 16.25H15.3845C14.9703 16.25 14.6345 16.5858 14.6345 17C14.6345 17.4142 14.9703 17.75 15.3845 17.75H20.3845C20.7987 17.75 21.1345 17.4142 21.1345 17Z" fill="#777777"/>
</g>
</svg>
