<svg width="42" height="43" viewBox="0 0 42 43" fill="none" xmlns="http://www.w3.org/2000/svg">
<g id="ph:stamp-light">
<path id="Vector" d="M36.4219 37.3008C36.4219 37.5619 36.3182 37.8122 36.1336 37.9968C35.949 38.1814 35.6986 38.2852 35.4375 38.2852H6.5625C6.30143 38.2852 6.05105 38.1814 5.86644 37.9968C5.68184 37.8122 5.57813 37.5619 5.57812 37.3008C5.57812 37.0397 5.68184 36.7893 5.86644 36.6047C6.05105 36.4201 6.30143 36.3164 6.5625 36.3164H35.4375C35.6986 36.3164 35.949 36.4201 36.1336 36.6047C36.3182 36.7893 36.4219 37.0397 36.4219 37.3008ZM36.4219 24.1758V30.7383C36.4219 31.3475 36.1799 31.9317 35.7491 32.3624C35.3184 32.7932 34.7342 33.0352 34.125 33.0352H7.875C7.26583 33.0352 6.68161 32.7932 6.25086 32.3624C5.82012 31.9317 5.57812 31.3475 5.57812 30.7383V24.1758C5.57812 23.5666 5.82012 22.9824 6.25086 22.5516C6.68161 22.1209 7.26583 21.8789 7.875 21.8789H17.5383L14.8772 9.45773C14.7233 8.74028 14.7319 7.9975 14.9021 7.28376C15.0724 6.57002 15.4001 5.90338 15.8612 5.33262C16.3223 4.76186 16.9052 4.30143 17.5673 3.98502C18.2293 3.66861 18.9537 3.50423 19.6875 3.50391H22.3125C23.0464 3.50398 23.771 3.66819 24.4332 3.98449C25.0955 4.30079 25.6786 4.76119 26.1399 5.33198C26.6013 5.90277 26.9291 6.5695 27.0994 7.28336C27.2698 7.99722 27.2783 8.74014 27.1245 9.45773L24.4617 21.8789H34.125C34.7342 21.8789 35.3184 22.1209 35.7491 22.5516C36.1799 22.9824 36.4219 23.5666 36.4219 24.1758ZM19.5513 21.8789H22.4487L25.1984 9.0443C25.2905 8.6139 25.2854 8.16833 25.1832 7.74019C25.081 7.31206 24.8844 6.91218 24.6078 6.56981C24.3311 6.22743 23.9815 5.95123 23.5843 5.7614C23.1872 5.57157 22.7527 5.47292 22.3125 5.47266H19.6875C19.2472 5.47268 18.8125 5.57115 18.4151 5.76087C18.0178 5.9506 17.6679 6.22677 17.3911 6.56917C17.1143 6.91157 16.9176 7.31154 16.8153 7.73979C16.713 8.16805 16.7078 8.61376 16.8 9.0443L19.5513 21.8789ZM34.4531 24.1758C34.4531 24.0888 34.4186 24.0053 34.357 23.9438C34.2955 23.8822 34.212 23.8477 34.125 23.8477H7.875C7.78798 23.8477 7.70452 23.8822 7.64298 23.9438C7.58144 24.0053 7.54688 24.0888 7.54688 24.1758V30.7383C7.54688 30.8253 7.58144 30.9088 7.64298 30.9703C7.70452 31.0318 7.78798 31.0664 7.875 31.0664H34.125C34.212 31.0664 34.2955 31.0318 34.357 30.9703C34.4186 30.9088 34.4531 30.8253 34.4531 30.7383V24.1758Z" fill="#FFCD00"/>
</g>
</svg>
